<svg xmlns="http://www.w3.org/2000/svg" viewBox="0 0 1200 720" role="img" aria-labelledby="title desc">
  <title id="title">Workshop table event</title>
  <desc id="desc">A workshop table with notebooks, coffee, and creative tools.</desc>
  <defs>
    <linearGradient id="bg" x1="0" x2="1" y1="0" y2="1">
      <stop offset="0" stop-color="#f8fafc"/>
      <stop offset="1" stop-color="#bae6fd"/>
    </linearGradient>
  </defs>
  <rect width="1200" height="720" fill="url(#bg)"/>
  <rect x="130" y="120" width="940" height="480" rx="42" fill="#0f172a"/>
  <rect x="185" y="170" width="320" height="230" rx="18" fill="#f8fafc"/>
  <rect x="220" y="215" width="215" height="18" rx="9" fill="#0ea5e9"/>
  <rect x="220" y="265" width="240" height="14" rx="7" fill="#94a3b8"/>
  <rect x="220" y="305" width="190" height="14" rx="7" fill="#cbd5e1"/>
  <rect x="625" y="170" width="330" height="230" rx="18" fill="#fef3c7"/>
  <path d="M670 355 790 215l120 140z" fill="#f97316"/>
  <circle cx="780" cy="280" r="38" fill="#22c55e"/>
  <circle cx="300" cy="505" r="70" fill="#f8fafc"/>
  <circle cx="300" cy="505" r="42" fill="#a16207"/>
  <rect x="485" y="465" width="260" height="82" rx="24" fill="#38bdf8"/>
  <rect x="785" y="470" width="125" height="70" rx="16" fill="#fb7185"/>
</svg>
